PathFileType	4	(X/Y/Z)	/Users/niels/Desktop/University/Third Semester/Perception and Action/Exam/Gymnastics Motion Tracking/Code for Gym Tracking/Analyzed Data/Start Salto/stsalto_good_id8_2_Sports2D/stsalto_good_id8_2_Sports2D_px_person00.trc
DataRate	CameraRate	NumFrames	NumMarkers	Units	OrigDataRate	OrigDataStartFrame	OrigNumFrames
29.788732394366196	29.788732394366196	12	22	m	29.788732394366196	53	142
Frame#	Time	Hip			RHip			RKnee			RAnkle			RBigToe			RSmallToe			RHeel			LHip			LKnee			LAnkle			LBigToe			LSmallToe			LHeel			Neck			Head			Nose			RShoulder			RElbow			RWrist			LShoulder			LElbow			LWrist		
		X1	Y1	Z1	X2	Y2	Z2	X3	Y3	Z3	X4	Y4	Z4	X5	Y5	Z5	X6	Y6	Z6	X7	Y7	Z7	X8	Y8	Z8	X9	Y9	Z9	X10	Y10	Z10	X11	Y11	Z11	X12	Y12	Z12	X13	Y13	Z13	X14	Y14	Z14	X15	Y15	Z15	X16	Y16	Z16	X17	Y17	Z17	X18	Y18	Z18	X19	Y19	Z19	X20	Y20	Z20	X21	Y21	Z21	X22	Y22	Z22
53	1.7791962174940898	1.1504558972140657	-0.3199029982312868	0.0	1.1530240746135194	-0.3063577336089245	0.0	1.1256277674961344	-0.18333998930285755	0.0	1.2383602157244993	-0.122915622074032	0.0	1.232227125976242	-0.08228139441256391	0.0	1.2426814774421546	-0.07798195356928776	0.0	1.2505988026589585	-0.1278573508994905	0.0	1.152558643079977	-0.3183307370277187	0.0	1.1579036226371275	-0.19435544040531255	0.0	1.2675759448663135	-0.24874805165930133	0.0	1.3128157455841074	-0.21392158338168363	0.0	1.3156051174633978	-0.21615165243785772	0.0	1.2809212638442613	-0.2634078961338062	0.0	0.9720289423778176	-0.3144668497148746	0.0	0.8919952613489378	-0.28469097393402054	0.0	0.953749713422288	-0.26942006918770295	0.0	0.9920526046328346	-0.3042095886770596	0.0	1.0465955155109161	-0.2255981124165559	0.0	1.0460591068834482	-0.18358698091670528	0.0	0.9838812168968748	-0.3335642029845334	0.0	1.0311441063860924	-0.26074839704673225	0.0	1.041727633131133	-0.20834246543117416	0.0
54	1.8127659574468085	1.1547213615900809	-0.3243784525775263	0.0	1.1577309651703667	-0.31216942993778474	0.0	1.140678744943187	-0.18672101588319506	0.0	1.2572883291860741	-0.13360331244194032	0.0	1.254993356638694	-0.0842448097033857	0.0	1.266053697597982	-0.08647464342747947	0.0	1.2688518094170893	-0.14036486020198077	0.0	1.1579697281870742	-0.3225194616739382	0.0	1.1800869973913994	-0.20224471002580657	0.0	1.2833833057945447	-0.26485087406950586	0.0	1.3312030000149357	-0.23359809976626672	0.0	1.3339446684256258	-0.23495378795257887	0.0	1.294441912403165	-0.2803735782847594	0.0	0.9766195713900444	-0.3075300427606871	0.0	0.8982339744403925	-0.2742944762677574	0.0	0.9619953969392646	-0.26172075873803397	0.0	0.9967315594892806	-0.2997101753156284	0.0	1.0525151800807406	-0.22199285604153823	0.0	1.0518969130108622	-0.17750544729965667	0.0	0.9870082196649634	-0.32626857772110507	0.0	1.0360104293190084	-0.25609922232814825	0.0	1.046222202743513	-0.20255649410349752	0.0
55	1.846335697399527	1.158696007800254	-0.32868096064234914	0.0	1.1617984989466879	-0.31851212369400167	0.0	1.1554119469039996	-0.19110054782784452	0.0	1.275300860427345	-0.14513920357682597	0.0	1.2762803019338351	-0.08901630248753506	0.0	1.287423106366664	-0.09567368588221568	0.0	1.2868184674076442	-0.15337587748284387	0.0	1.1623558711129167	-0.32623477880059587	0.0	1.201131761130822	-0.21169661173465168	0.0	1.298224580340041	-0.2813856756166877	0.0	1.3480742921484807	-0.25525988417997886	0.0	1.3504891937652375	-0.2558097461337989	0.0	1.3068060517689628	-0.2980889998296434	0.0	0.9818040342642759	-0.3009939504543202	0.0	0.9055579480979815	-0.26421635862998144	0.0	0.9704129004066951	-0.2545416849708781	0.0	1.0017395166169027	-0.2958576870963756	0.0	1.05850095331995	-0.21812163288909805	0.0	1.0571416156006719	-0.1701472456363784	0.0	0.9913600618049377	-0.3193771558172674	0.0	1.0426704872566328	-0.2511076060511749	0.0	1.0507777380440446	-0.1952486860725334	0.0
56	1.879905437352246	1.1627048148032562	-0.33292203554035155	0.0	1.1657370842664534	-0.32494468019598044	0.0	1.1702522620514322	-0.1961444746927614	0.0	1.2925574866457066	-0.15736678256063585	0.0	1.2965571955926036	-0.09697825963744632	0.0	1.30731896870114	-0.10586133451773	0.0	1.3047325937563818	-0.16683438781510504	0.0	1.1663463778428107	-0.3296921790704809	0.0	1.221012143458968	-0.22225642926230033	0.0	1.311980420155407	-0.29866931182744527	0.0	1.363038257672088	-0.27878005188339494	0.0	1.36476521803134	-0.27852415384261203	0.0	1.3181305279189717	-0.3166066799383362	0.0	0.9877590475542051	-0.29473173042110057	0.0	0.913905577971055	-0.25447420531165343	0.0	0.9791620946160495	-0.24764987822857437	0.0	1.0072000869393578	-0.29223256830934224	0.0	1.0645955622826493	-0.21404391435654027	0.0	1.062035986473786	-0.1623801534699281	0.0	0.9970120931743129	-0.312771556089648	0.0	1.05056945322399	-0.24605933229506233	0.0	1.05546332874088	-0.18692587682938466	0.0
57	1.9134751773049645	1.16707789901532	-0.33705908324632006	0.0	1.1701261534650984	-0.33088708182749266	0.0	1.185133190879923	-0.20135013035456872	0.0	1.308946358840146	-0.17000571588680607	0.0	1.3160773142885522	-0.10770432251522863	0.0	1.3261727937726002	-0.1172034975381379	0.0	1.322216051946845	-0.18067737143802065	0.0	1.1707293963460979	-0.33321323904395805	0.0	1.2396868015087568	-0.23350986313810804	0.0	1.3242789206141148	-0.31680635733775464	0.0	1.3757826170097904	-0.303366826305322	0.0	1.376441085455017	-0.30225576434710266	0.0	1.3284124226739493	-0.3357273793344975	0.0	0.9945141685907875	-0.28868057030912314	0.0	0.9226962833638375	-0.24530059248718042	0.0	0.9880882772854088	-0.24104013036472158	0.0	1.013166207091969	-0.2886340693237888	0.0	1.0707023084408869	-0.2100421543274962	0.0	1.06683789925385	-0.15548969014295233	0.0	1.003659457412896	-0.30621835237170125	0.0	1.0585676436866107	-0.2409028834453088	0.0	1.060017660208071	-0.1785917030167228	0.0
58	1.9470449172576831	1.1718143242777408	-0.3410224378783937	0.0	1.1750973929460486	-0.3359726666414813	0.0	1.1997598773506224	-0.20630918851331317	0.0	1.3242461380675374	-0.18275086151069558	0.0	1.3348483516146734	-0.12026174354417085	0.0	1.3441196697884588	-0.12960071459059652	0.0	1.3386387747083155	-0.19478714725887536	0.0	1.1758079060749929	-0.3370135793839431	0.0	1.2570183854957406	-0.24525072836054856	0.0	1.3348390079915813	-0.3354953892264897	0.0	1.3866337132783215	-0.32768145037308505	0.0	1.3859612697957548	-0.3258501519303702	0.0	1.3375818175144951	-0.3550463791836311	0.0	1.0020060096974108	-0.28297906081635416	0.0	0.9312853877867648	-0.23696424740147912	0.0	0.9967933637773985	-0.23495819235024357	0.0	1.0196312763830626	-0.2851377607275953	0.0	1.0766758906307548	-0.206494055680164	0.0	1.07168812755185	-0.1502246581997337	0.0	1.0108014191343937	-0.2996469474863721	0.0	1.0656642923949577	-0.23549529892320306	0.0	1.064184486218471	-0.17100571310149773	0.0
59	1.980614657210402	1.1766547030805903	-0.344924208206141	0.0	1.180346341465251	-0.34026232018727215	0.0	1.2140296942649802	-0.21094646101073777	0.0	1.3384879320107288	-0.1955873911148135	0.0	1.35293118284204	-0.13378903175199877	0.0	1.3612167040083198	-0.1428874010585754	0.0	1.3536454591874603	-0.20920919458669462	0.0	1.181315468828974	-0.3412549978822455	0.0	1.2728750210291573	-0.25767908755110597	0.0	1.3437921547678229	-0.35435770972170627	0.0	1.396487106169139	-0.35080960390411736	0.0	1.394430233920335	-0.348758663119483	0.0	1.3456494513303325	-0.3743556711019305	0.0	1.0102450206467384	-0.2778041456989811	0.0	0.9395157121218672	-0.22957702956084167	0.0	1.0050678365722348	-0.22969469669979908	0.0	1.0266362025681715	-0.2818806188789889	0.0	1.0825063595447106	-0.2036739850413671	0.0	1.0766251217498706	-0.14635945048553076	0.0	1.0180287292673076	-0.29311014342299124	0.0	1.0714163284322071	-0.22967992539307416	0.0	1.0679782840037622	-0.16428489163329082	0.0
60	2.0141843971631204	1.1814492972059207	-0.3490115466561296	0.0	1.1856167819723042	-0.3440213749481409	0.0	1.2281611050729264	-0.21559633307260564	0.0	1.3520192365060273	-0.20899212783772678	0.0	1.37051008265355	-0.1482599900411794	0.0	1.3776391187726744	-0.15733955946272712	0.0	1.3673190623018638	-0.22427685207766396	0.0	1.1869442137861057	-0.34615801171785826	0.0	1.2873296918644694	-0.2713778948744862	0.0	1.3516377127441588	-0.37336166812858873	0.0	1.4061039366356405	-0.3729459619394389	0.0	1.40275216497699	-0.3714254579880348	0.0	1.352760323575565	-0.39382780543689805	0.0	1.019317381268722	-0.27318684043219027	0.0	0.9479223969740773	-0.2230644935501721	0.0	1.0132280749593365	-0.22536627232892795	0.0	1.0342776521122112	-0.2788443560681668	0.0	1.0884923369364508	-0.20156362332916797	0.0	1.0817212636292686	-0.1430567378619022	0.0	1.0252476478214672	-0.2867377719311864	0.0	1.076053618921834	-0.2234639641755007	0.0	1.071728965605719	-0.1582146649956691	0.0
61	2.0477541371158394	1.1862967025859357	-0.35337419058145225	0.0	1.1909472807374555	-0.34745885002225796	0.0	1.2425040531659202	-0.22089323153468685	0.0	1.3652538244564512	-0.22365609251093965	0.0	1.3876158704330002	-0.16459513515201762	0.0	1.3936022070066607	-0.17376058172342226	0.0	1.380026938459331	-0.24031776635219984	0.0	1.192601223510001	-0.35187709111601273	0.0	1.300647726274516	-0.2869228849999421	0.0	1.3589409733482674	-0.39275428012655395	0.0	1.4154787568692462	-0.3949983958099799	0.0	1.4109907514735882	-0.3946811844108569	0.0	1.359194663626269	-0.4136436203788066	0.0	1.0291602706759744	-0.26908309146311327	0.0	0.9573855860198177	-0.21717262254086983	0.0	1.0219718805136886	-0.22186145539194196	0.0	1.0425616395683346	-0.27588544866410175	0.0	1.0951747099144014	-0.19979195528550658	0.0	1.087162898036705	-0.13951804861838077	0.0	1.0326210078334033	-0.28086401244485276	0.0	1.0803077590464927	-0.2173359659542596	0.0	1.0758995585603008	-0.1529081705277371	0.0
62	2.081323877068558	1.1914179882142175	-0.3578115827353396	0.0	1.1965597559187229	-0.35064267716984804	0.0	1.2572594867062181	-0.2273980809837748	0.0	1.3784247130170062	-0.23993157542090107	0.0	1.404040089157888	-0.1836090555586025	0.0	1.4092079282713577	-0.19269470347402126	0.0	1.3921388233554972	-0.25730826185090905	0.0	1.198314868157463	-0.3583103455540946	0.0	1.3129940975357401	-0.3044335227906691	0.0	1.3660295304712642	-0.41268171042893736	0.0	1.4239820374824856	-0.41780575935150654	0.0	1.4185952413559524	-0.4189915040883483	0.0	1.3652434922966774	-0.43365625626072524	0.0	1.0394310992190157	-0.26549776685489096	0.0	0.9684663932477721	-0.2115857126007105	0.0	1.031878577741555	-0.21888796139694236	0.0	1.051364891067153	-0.27286896169121516	0.0	1.1029455440733464	-0.1978915112795365	0.0	1.0931403692506918	-0.13533694062346346	0.0	1.0403314795841168	-0.27596353311343436	0.0	1.0849367090091022	-0.21201433742271034	0.0	1.0807916856607183	-0.14872639017430522	0.0
63	2.1148936170212767	1.1970289614142913	-0.3620460864488203	0.0	1.2027165977444834	-0.35351077106190043	0.0	1.272306384906973	-0.23515481002789118	0.0	1.391547243093745	-0.25747560958525756	0.0	1.4196841325956222	-0.20474784093335885	0.0	1.4245021755634626	-0.21348252439319457	0.0	1.4038979815639723	-0.2748597142750077	0.0	1.2041738804350133	-0.36510733108853966	0.0	1.3242389955641334	-0.32337336886404716	0.0	1.37289372822786	-0.4329757451206381	0.0	1.4311419015029423	-0.44168164484683936	0.0	1.4251638841325311	-0.4441786222330213	0.0	1.3710328144835087	-0.45353553611928127	0.0	1.0495986841097924	-0.26246474689485433	0.0	0.9809457334489696	-0.20613539786905785	0.0	1.0429499672980274	-0.21604985870125348	0.0	1.0605765794863355	-0.26972553162691326	0.0	1.1116416320421365	-0.1956775817744933	0.0	1.0996609296265338	-0.130523861297881	0.0	1.0483787198485195	-0.2723488674662324	0.0	1.0902342645051804	-0.20778094785401865	0.0	1.0863002451013437	-0.1455209162103171	0.0
64	2.1484633569739953	1.2032442807066968	-0.36599597033489417	0.0	1.2095683569272164	-0.35597627867501813	0.0	1.2871465164370834	-0.24365032040624718	0.0	1.4044356402814577	-0.2753321013511024	0.0	1.4346633843879903	-0.22629348562253948	0.0	1.4394700218282996	-0.23448191186467493	0.0	1.415423381534859	-0.2923628377078737	0.0	1.2102274402608364	-0.3718517482952244	0.0	1.3340129160499266	-0.3426805493989571	0.0	1.3792660746975476	-0.45315326409749196	0.0	1.4369196812352638	-0.466173668689247	0.0	1.4306371406089735	-0.4694408676911595	0.0	1.3764550068715151	-0.47295777501034736	0.0	1.0591409669360377	-0.2600433009110623	0.0	0.9940238977324966	-0.20084773611241888	0.0	1.0545412579562632	-0.21309606719379728	0.0	1.070114661317369	-0.26655452286567916	0.0	1.1206027897735842	-0.19328442898756107	0.0	1.106503076406909	-0.12541609453110725	0.0	1.0565382565880335	-0.2701302031669866	0.0	1.0959725856051217	-0.2044324684355211	0.0	1.0919294562784054	-0.14261631423305074	0.0
